<svg viewBox="-65 0 511 511.99992" xmlns="http://www.w3.org/2000/svg"><path d="m10.503906 10v492h362.058594zm70.011719 241.011719 130.347656 181-130.347656-.011719zm0 0" fill="#fac800"/><path d="m380.617188 496.074219-362.058594-492c-2.5625-3.480469-7.070313-4.921875-11.175782-3.578125-4.105468 1.351562-6.882812 5.183594-6.882812 9.503906v492c0 5.523438 4.476562 10 10.003906 10h362.058594c8.007812 0 12.796875-9.484375 8.054688-15.925781zm-80.066407-4.074219v-20c0-5.523438-4.476562-10-10-10-5.523437 0-10.003906 4.476562-10.003906 10v20h-20.003906v-10c0-5.523438-4.476563-10-10-10-5.523438 0-10.003907 4.476562-10.003907 10v10h-20.003906v-20c0-5.523438-4.476562-10-10-10-5.523437 0-10.003906 4.476562-10.003906 10v20h-20v-10c0-5.523438-4.480469-10-10.003906-10-5.523438 0-10 4.476562-10 10v10h-20.003906v-20c0-5.523438-4.476563-10-10.003907-10-5.523437 0-10 4.476562-10 10v20h-20.003906v-10c0-5.523438-4.476563-10-10-10s-10.003906 4.476562-10.003906 10v10h-60.007813v-20h20c5.523438 0 10.003906-4.476562 10.003906-10s-4.480468-10-10.003906-10h-20v-20h10c5.523438 0 10.003906-4.476562 10.003906-10s-4.480468-10-10.003906-10h-10v-20h20.003906c5.519532 0 10-4.476562 10-10s-4.476562-10-10-10h-20.003906v-20h10c5.523438 0 10.003906-4.476562 10.003906-10s-4.480468-10-10.003906-10h-10v-20h20.003906c5.519532 0 10-4.476562 10-10s-4.476562-10-10-10h-20.003906v-20h10c5.523438 0 10.003906-4.476562 10.003906-10s-4.480468-10-10.003906-10h-10v-20h20.003906c5.519532 0 10-4.476562 10-10s-4.476562-10-10-10h-20.003906v-20h10c5.523438 0 10.003906-4.476562 10.003906-10s-4.480468-10-10.003906-10h-10v-20.125h20.003906c5.519532 0 10-4.476562 10-10s-4.476562-10-10-10h-20.003906v-19.875h10c5.523438 0 10.003906-4.476562 10.003906-10s-4.480468-10-10.003906-10h-10v-51.535156l332.28125 451.535156zm0 0"/><path d="m80.511719 442s130.035156.011719 130.351562.011719c7.554688 0 12.855469-9.265625 8.117188-15.84375 0 0-129.871094-180.335938-130.347657-181-5.542968-7.691407-18.121093-3.660157-18.121093 5.84375v180.988281c0 5.523438 4.476562 10 10 10zm10.003906-159.988281 100.820313 139.996093-100.820313-.007812zm0 0"/><path d="m248.003906 420.039062c3.207032 4.367188 9.625 5.339844 13.980469 2.140626 4.316406-3.167969 5.296875-9.683594 2.140625-13.980469 0 0-46.230469-62.933594-46.308594-63.039063-3.152344-4.292968-9.699218-5.285156-13.980468-2.140625-4.367188 3.203125-5.332032 9.636719-2.140626 13.980469 0 0 46.238282 62.945312 46.308594 63.039062zm0 0"/><path d="m154.335938 292.519531c3.195312 4.351563 9.644531 5.324219 13.984374 2.140625 4.390626-3.222656 5.359376-9.601562 2.136719-13.980468 0 0-47.277343-64.375-47.355469-64.480469-3.136718-4.269531-9.722656-5.265625-13.984374-2.140625-4.449219 3.261718-5.410157 9.53125-2.140626 13.980468 0 0 47.300782 64.398438 47.359376 64.480469zm0 0"/><path d="m196.53125 319c0 5.523438-4.476562 10-10 10s-10-4.476562-10-10 4.476562-10 10-10 10 4.476562 10 10zm0 0"/></svg>